<svg xmlns="http://www.w3.org/2000/svg"  viewBox="0 0 80 80" width="80px" height="80px"><path fill="#b0c1d4" d="M20.926,75.5C11.869,75.5,4.5,68.131,4.5,59.074V20.926C4.5,11.869,11.869,4.5,20.926,4.5h38.148 c9.057,0,16.426,7.369,16.426,16.426v38.148c0,9.057-7.369,16.426-16.426,16.426H20.926z M24.016,17.5 c-3.593,0-6.516,2.923-6.516,6.516v31.968c0,3.593,2.923,6.516,6.516,6.516h31.968c3.593,0,6.516-2.923,6.516-6.516V24.016 c0-3.593-2.922-6.516-6.514-6.516H24.016z"/><path fill="#66798f" d="M59.074,5C67.856,5,75,12.144,75,20.926v38.148C75,67.856,67.856,75,59.074,75H20.926 C12.144,75,5,67.856,5,59.074V20.926C5,12.144,12.144,5,20.926,5H59.074 M24.016,63h31.968C59.853,63,63,59.853,63,55.984V24.016 C63,20.147,59.854,17,55.986,17h-31.97C20.147,17,17,20.147,17,24.016v31.968C17,59.853,20.147,63,24.016,63 M59.074,4H20.926 C11.578,4,4,11.578,4,20.926v38.148C4,68.422,11.578,76,20.926,76h38.148C68.422,76,76,68.422,76,59.074V20.926 C76,11.578,68.422,4,59.074,4L59.074,4z M24.016,62C20.692,62,18,59.308,18,55.984V24.016C18,20.692,20.692,18,24.016,18h31.97 C59.308,18,62,20.692,62,24.016v31.968C62,59.308,59.308,62,55.984,62H24.016L24.016,62z"/><g><rect width="19" height="19" x="30.5" y="30.5" fill="#b0c1d4"/><path fill="#66798f" d="M49,31v18H31V31H49 M50,30H30v20h20V30L50,30z"/></g></svg>